<svg xmlns="http://www.w3.org/2000/svg" xmlns:v="https://svgstorm.com"
viewBox = "0 0 693 721"
width="693"
height="721">
<g fill="None" fill-opacity="0.0" stroke="#000000" stroke-opacity="0.00" stroke-width="40"><path d="
M 0.00 721.00 
L 135.00 721.00
C 137.76 711.80 145.71 703.97 152.00 696.00
C 151.71 696.84 149.99 694.26 151.77 692.77 C 153.56 691.28 154.58 691.27 155.00 691.00
C 162.90 681.38 167.23 669.24 174.30 659.30 C 181.38 649.37 185.55 638.56 196.00 630.00
C 194.58 628.33 195.11 626.04 195.00 624.00
C 192.15 616.01 190.05 610.49 193.00 602.00
C 193.56 600.40 196.01 599.54 194.00 597.00
C 201.60 594.12 203.61 588.39 210.25 583.25 C 216.89 578.10 215.20 567.17 216.00 560.00
C 221.54 560.36 223.06 551.16 229.25 549.25 C 235.43 547.33 244.97 546.72 249.00 544.00
C 237.34 532.73 212.63 527.60 207.00 507.00
C 206.04 504.24 204.81 502.37 203.00 500.00
C 201.17 500.82 199.81 502.54 198.00 504.00
C 194.40 506.90 189.90 506.62 188.00 510.00
C 184.57 508.81 179.31 507.02 178.00 512.00
C 166.82 511.59 158.34 512.97 148.32 510.34 C 138.30 507.70 130.86 504.24 122.75 497.25 C 114.64 490.26 112.41 481.89 105.25 473.75 C 98.08 465.62 96.07 457.30 89.25 449.75 C 82.43 442.20 72.42 442.74 67.00 433.00
C 65.37 430.93 65.38 428.95 65.00 428.00
C 59.57 421.39 54.03 414.19 53.00 405.00
C 49.38 396.81 49.49 390.95 53.00 383.00
C 54.12 368.85 53.90 356.85 48.00 342.00
C 45.33 335.28 46.30 327.50 48.00 323.00
C 48.59 316.18 51.86 308.59 51.00 301.00
C 40.77 296.04 41.80 286.37 34.08 277.92 C 26.35 269.48 29.99 257.33 33.33 247.33 C 36.67 237.32 40.29 229.13 45.77 219.77 C 51.25 210.41 53.75 200.91 60.92 192.92 C 68.09 184.92 71.37 176.63 77.00 170.00
C 78.77 167.04 80.39 165.23 83.00 163.00
C 86.18 160.29 87.54 156.75 90.00 154.00
C 95.98 147.31 104.12 140.26 111.25 132.25 C 118.37 124.23 126.74 117.16 134.25 109.25 C 141.75 101.34 149.45 93.85 157.75 86.75 C 166.05 79.65 175.07 73.26 184.22 67.22 C 193.38 61.19 201.09 54.35 211.23 49.23 C 221.37 44.11 231.47 39.09 241.70 35.70 C 251.92 32.31 263.90 30.14 273.70 26.36 C 283.49 22.58 297.46 26.41 309.00 23.00 C 320.54 19.59 333.68 21.84 346.00 20.00
C 350.92 25.80 360.43 22.22 367.00 22.00
C 371.30 28.31 379.98 21.70 386.22 25.22 C 392.46 28.74 400.96 27.21 407.01 29.01 C 413.06 30.81 420.98 36.43 427.67 37.33 C 434.37 38.22 441.36 44.90 447.74 46.26 C 454.13 47.61 458.93 50.80 464.70 54.30 C 470.46 57.81 475.15 60.65 482.00 64.00
C 486.78 66.52 490.52 69.45 494.00 73.00
C 507.80 82.86 520.15 88.97 535.25 98.80 C 550.34 108.63 557.36 123.75 566.30 138.70 C 575.25 153.64 576.88 176.30 586.31 191.69 C 595.73 207.09 602.12 226.24 610.00 242.00
C 611.43 244.85 612.90 247.78 614.00 251.00
C 616.40 258.02 618.02 264.44 620.75 271.25 C 623.49 278.05 623.60 286.86 626.33 293.67 C 629.06 300.49 627.70 310.78 633.00 315.00
C 633.83 319.78 630.20 324.53 633.00 329.00
C 635.71 336.91 635.77 348.47 634.00 357.00
C 633.35 360.12 634.78 361.95 631.00 362.00
C 630.51 364.73 631.30 367.02 633.00 369.00
C 630.49 369.83 628.78 374.31 628.00 378.00
C 617.75 375.67 622.62 361.99 617.01 354.99 C 611.40 347.99 609.00 365.90 607.23 372.23 C 605.45 378.56 605.31 391.48 600.23 398.23 C 595.15 404.98 586.85 411.49 590.00 421.00
C 600.34 432.63 592.86 449.22 588.25 460.39 C 583.63 471.56 577.11 483.87 566.25 493.25 C 555.39 502.63 543.45 508.16 531.00 515.00
C 528.15 516.86 526.21 516.92 523.00 518.00
C 518.09 521.10 508.86 519.04 504.75 524.75 C 500.65 530.46 495.62 531.74 490.75 535.75 C 485.89 539.77 481.26 542.74 476.00 546.00
C 473.63 547.47 471.28 548.73 469.00 550.00
C 467.79 550.68 466.34 551.35 465.00 552.00
C 460.85 554.03 456.96 557.37 452.00 558.00
C 451.51 558.06 450.49 557.94 450.00 558.00
C 441.04 559.14 428.01 564.83 423.00 571.00
C 429.11 577.85 437.14 582.97 435.22 592.22 C 433.30 601.48 446.00 604.23 451.75 611.25 C 457.50 618.27 465.20 622.69 469.77 630.23 C 474.34 637.78 478.83 640.83 483.75 648.25 C 488.68 655.67 495.58 661.01 500.77 668.23 C 505.97 675.45 513.92 680.36 519.75 687.25 C 525.58 694.13 532.72 699.87 538.00 707.00
C 540.05 708.71 540.40 708.43 541.00 712.00
C 542.65 715.40 541.28 716.60 543.00 721.00
L 693.00 721.00
L 693.00 0.00
L 0.00 0.00
L 0.00 721.00 Z"/>
</g>
<g fill="None" fill-opacity="0.0" stroke="#000000" stroke-opacity="1.00" stroke-width="40"><path d="
M 90.00 154.00 
C 88.92 155.74 84.52 165.64 79.00 169.00
C 78.62 169.23 77.23 169.74 77.00 170.00
C 71.37 176.63 68.09 184.92 60.92 192.92 C 53.75 200.91 51.25 210.41 45.77 219.77 C 40.29 229.13 36.67 237.32 33.33 247.33 C 29.99 257.33 26.35 269.48 34.08 277.92 C 41.80 286.37 40.77 296.04 51.00 301.00
C 51.86 308.59 48.59 316.18 48.00 323.00
C 47.56 328.03 47.20 336.27 48.00 342.00
C 53.90 356.85 54.12 368.85 53.00 383.00
C 52.45 389.90 52.23 398.12 53.00 405.00
C 54.03 414.19 59.57 421.39 65.00 428.00
C 66.61 429.96 69.66 431.06 70.00 434.00
C 68.72 434.53 68.14 433.03 67.00 433.00
C 72.42 442.74 82.43 442.20 89.25 449.75 C 96.07 457.30 98.08 465.62 105.25 473.75 C 112.41 481.89 114.64 490.26 122.75 497.25 C 130.86 504.24 138.30 507.70 148.32 510.34 C 158.34 512.97 166.82 511.59 178.00 512.00
C 179.31 507.02 184.57 508.81 188.00 510.00
C 189.90 506.62 194.40 506.90 198.00 504.00
C 198.19 503.77 200.18 498.29 200.00 497.00
C 199.65 496.89 199.23 496.05 199.00 496.00
C 187.97 493.55 173.34 504.17 162.26 503.26 C 151.18 502.34 140.42 498.97 131.77 491.23 C 123.12 483.49 118.30 476.34 112.08 466.92 C 105.86 457.50 99.99 448.32 98.00 437.00
C 94.96 426.99 94.30 418.02 98.00 408.00
C 100.09 399.93 110.90 385.40 117.75 395.25 C 124.60 405.09 123.58 412.55 130.77 421.23 C 137.96 429.91 138.05 437.03 146.75 444.25 C 155.45 451.46 155.43 458.46 168.03 461.97 C 180.62 465.49 182.25 446.98 183.00 438.00 C 183.75 429.02 184.40 413.09 190.00 406.00
C 196.64 397.59 205.29 388.44 216.00 386.00 C 226.72 383.56 244.73 380.95 256.00 382.00
C 253.37 383.78 255.08 387.86 252.00 389.00
C 248.26 412.50 251.90 436.71 259.00 458.00
C 260.30 460.75 262.61 463.95 264.00 467.00
C 266.30 472.03 271.04 476.41 276.00 479.00
C 281.84 481.00 290.03 480.28 296.00 479.00
C 310.06 473.94 320.41 461.55 321.00 446.00
C 321.55 431.47 322.80 416.80 322.00 402.00
C 321.64 395.40 322.47 389.17 320.00 383.00
C 329.14 381.07 333.64 390.23 339.25 395.75 C 344.85 401.27 351.02 406.23 356.75 411.25 C 362.47 416.28 371.24 420.18 377.03 423.97 C 382.82 427.77 395.85 435.33 396.99 424.99 C 398.13 414.66 389.57 408.88 390.00 399.00
C 402.10 408.88 413.55 419.92 427.00 427.00
C 428.54 429.39 426.23 435.39 427.00 439.00
C 427.61 441.98 429.03 447.36 430.00 451.00
C 433.90 465.60 444.97 481.72 462.22 479.22 C 479.47 476.72 487.12 459.19 490.00 444.00
C 491.34 436.91 493.71 429.57 493.00 422.00 C 492.29 414.43 492.73 405.81 493.00 398.00 C 493.27 390.19 493.58 392.44 492.22 385.78 C 490.86 379.12 495.60 382.56 498.00 383.00
C 505.57 384.40 519.23 384.66 521.92 395.08 C 524.61 405.50 522.11 419.20 522.67 429.67 C 523.23 440.14 516.90 452.52 524.00 461.00
C 509.56 535.44 427.64 562.85 361.00 568.00
C 359.37 569.73 359.00 574.22 360.00 577.00 C 361.00 579.78 358.32 584.27 358.00 586.00
C 356.48 592.37 361.30 597.56 367.00 599.00
C 363.11 604.02 353.83 620.19 346.75 613.25 C 339.68 606.31 334.30 598.86 325.75 594.25 C 317.21 589.63 309.42 582.49 300.00 580.00
C 300.00 578.67 300.00 577.33 300.00 576.00
C 299.64 573.76 300.11 571.27 300.00 569.00
C 299.62 561.34 299.04 552.83 292.00 548.00
C 282.98 544.40 271.40 540.68 261.92 537.08 C 252.44 533.48 243.72 527.28 234.97 523.03 C 226.22 518.78 220.24 504.90 210.00 506.00
C 209.51 506.05 209.00 506.00 209.00 506.00
C 209.18 505.88 206.76 507.48 207.00 507.00
C 212.63 527.60 237.34 532.73 249.00 544.00
C 244.97 546.72 235.43 547.33 229.25 549.25 C 223.06 551.16 221.54 560.36 216.00 560.00
C 215.20 567.17 216.89 578.10 210.25 583.25 C 203.61 588.39 201.60 594.12 194.00 597.00
C 196.01 599.54 193.56 600.40 193.00 602.00
C 192.70 608.53 194.53 618.47 195.00 624.00
C 195.11 626.04 194.58 628.33 196.00 630.00
C 185.55 638.56 181.38 649.37 174.30 659.30 C 167.23 669.24 162.90 681.38 155.00 691.00
C 154.06 692.14 153.10 694.61 152.00 696.00
C 145.71 703.97 137.76 711.80 135.00 721.00
L 142.00 721.00
C 149.99 706.57 161.06 694.93 170.26 681.26 C 179.45 667.59 186.89 652.54 199.00 641.00
C 218.44 647.49 229.00 667.92 244.00 682.00
C 238.45 663.18 221.75 639.10 200.00 639.00
C 201.68 637.23 201.98 635.09 203.00 633.00
C 208.22 634.17 208.49 630.99 206.00 628.00
C 209.14 629.69 215.39 628.41 215.00 624.00
C 225.02 625.27 233.96 625.73 244.22 624.22 C 254.48 622.71 264.05 624.77 274.22 625.78 C 284.40 626.79 291.39 628.46 302.22 629.78 C 313.06 631.10 315.23 638.13 314.00 649.00 C 312.77 659.87 314.14 671.12 314.00 681.00 C 313.86 690.88 314.36 700.93 322.00 705.00
C 322.70 710.31 320.24 716.71 324.00 721.00
L 333.00 721.00
C 334.94 712.42 334.85 704.62 336.00 695.00 C 337.15 685.38 332.66 673.77 333.01 663.99 C 333.35 654.21 328.70 642.38 333.00 634.00
C 335.51 634.80 338.19 635.28 341.00 635.00
C 340.64 630.04 334.26 629.00 330.00 629.00
C 333.33 623.02 322.45 611.40 317.75 617.75 C 313.06 624.11 307.44 621.49 299.78 619.22 C 292.12 616.95 284.17 616.94 276.00 616.00 C 267.83 615.06 259.58 613.90 251.00 614.00 C 242.42 614.10 233.38 613.52 225.00 615.00 C 216.62 616.48 208.51 615.25 200.00 616.00
C 196.74 600.69 210.66 595.73 218.25 587.25 C 225.83 578.76 219.55 560.01 234.08 556.08 C 248.61 552.16 259.60 550.39 274.00 553.00
C 270.87 554.20 273.31 556.90 272.00 559.00
C 268.95 553.31 264.80 558.77 260.00 558.00
C 262.90 562.81 245.15 570.38 254.08 573.92 C 263.01 577.46 270.05 577.97 278.22 580.78 C 286.39 583.59 293.66 585.30 300.75 589.25 C 307.83 593.20 312.28 597.18 319.23 600.77 C 326.17 604.36 330.01 610.26 336.25 614.75 C 342.48 619.24 347.08 625.24 354.00 626.00
C 363.57 611.15 389.76 597.55 384.00 577.00
C 395.73 572.08 408.36 572.53 418.70 578.30 C 429.04 584.07 432.12 600.19 420.30 605.30 C 408.49 610.41 400.96 614.30 389.00 618.00
C 390.48 610.91 378.31 611.75 377.70 617.70 C 377.09 623.64 368.58 625.06 370.00 632.00
C 379.02 628.70 377.81 640.06 379.00 647.00 C 380.19 653.95 380.20 664.68 381.00 672.00 C 381.80 679.32 377.96 690.43 388.00 692.00
C 387.53 696.89 388.49 701.35 389.00 706.00
C 398.25 713.83 407.66 699.63 399.00 693.00
C 402.95 682.82 400.78 670.26 400.00 659.00 C 399.22 647.74 393.13 636.63 393.00 625.00
C 401.65 624.70 408.75 616.29 417.23 615.23 C 425.71 614.17 432.52 602.65 438.25 609.75 C 443.98 616.85 450.34 620.81 455.75 627.25 C 461.17 633.69 465.97 639.34 471.25 645.75 C 476.53 652.17 480.12 658.80 485.75 665.25 C 491.39 671.69 497.08 676.90 502.75 683.25 C 508.42 689.60 513.62 693.85 519.75 700.25 C 525.89 706.65 534.00 710.82 534.00 721.00
L 543.00 721.00
C 541.28 716.60 542.65 715.40 541.00 712.00
C 540.33 710.62 538.95 708.43 538.00 707.00
C 532.72 699.87 525.58 694.13 519.75 687.25 C 513.92 680.36 505.97 675.45 500.77 668.23 C 495.58 661.01 488.68 655.67 483.75 648.25 C 478.83 640.83 474.34 637.78 469.77 630.23 C 465.20 622.69 457.50 618.27 451.75 611.25 C 446.00 604.23 433.30 601.48 435.22 592.22 C 437.14 582.97 429.11 577.85 423.00 571.00
C 428.01 564.83 441.04 559.14 450.00 558.00
C 454.18 556.07 458.34 553.41 463.00 552.00
C 464.25 551.62 464.51 552.05 465.00 552.00
C 466.34 551.35 467.79 550.68 469.00 550.00
C 470.00 549.09 473.81 544.28 477.00 543.00
C 477.53 544.28 476.03 544.86 476.00 546.00
C 481.26 542.74 485.89 539.77 490.75 535.75 C 495.62 531.74 500.65 530.46 504.75 524.75 C 508.86 519.04 518.09 521.10 523.00 518.00
C 524.01 517.36 527.96 516.07 531.00 515.00
C 543.45 508.16 555.39 502.63 566.25 493.25 C 577.11 483.87 583.63 471.56 588.25 460.39 C 592.86 449.22 600.34 432.63 590.00 421.00
C 586.85 411.49 595.15 404.98 600.23 398.23 C 605.31 391.48 605.45 378.56 607.23 372.23 C 609.00 365.90 611.40 347.99 617.01 354.99 C 622.62 361.99 617.75 375.67 628.00 378.00
C 628.78 374.31 630.49 369.83 633.00 369.00
C 631.30 367.02 630.51 364.73 631.00 362.00
C 634.78 361.95 633.35 360.12 634.00 357.00
C 633.82 348.81 634.37 337.08 633.00 329.00
C 630.20 324.53 633.83 319.78 633.00 315.00
C 627.70 310.78 629.06 300.49 626.33 293.67 C 623.60 286.86 623.49 278.05 620.75 271.25 C 618.02 264.44 616.40 258.02 614.00 251.00
C 612.62 248.08 611.19 245.22 610.00 242.00
C 602.12 226.24 595.73 207.09 586.31 191.69 C 576.88 176.30 575.25 153.64 566.30 138.70 C 557.36 123.75 550.34 108.63 535.25 98.80 C 520.15 88.97 507.80 82.86 494.00 73.00
C 490.05 70.18 484.16 65.83 482.00 64.00
C 475.15 60.65 470.46 57.81 464.70 54.30 C 458.93 50.80 454.13 47.61 447.74 46.26 C 441.36 44.90 434.37 38.22 427.67 37.33 C 420.98 36.43 413.06 30.81 407.01 29.01 C 400.96 27.21 392.46 28.74 386.22 25.22 C 379.98 21.70 371.30 28.31 367.00 22.00
C 360.43 22.22 350.92 25.80 346.00 20.00
C 333.68 21.84 320.54 19.59 309.00 23.00 C 297.46 26.41 283.49 22.58 273.70 26.36 C 263.90 30.14 251.92 32.31 241.70 35.70 C 231.47 39.09 221.37 44.11 211.23 49.23 C 201.09 54.35 193.38 61.19 184.22 67.22 C 175.07 73.26 166.05 79.65 157.75 86.75 C 149.45 93.85 141.75 101.34 134.25 109.25 C 126.74 117.16 118.37 124.23 111.25 132.25 C 104.12 140.26 95.98 147.31 90.00 154.00
M 488.00 77.00 
C 470.86 76.97 446.72 71.03 431.00 79.00
C 461.69 82.14 498.14 83.48 524.08 99.92 C 550.02 116.35 563.21 139.74 571.00 168.00
C 561.96 160.52 554.59 151.04 544.97 144.03 C 535.36 137.01 527.15 129.50 516.75 122.25 C 506.36 114.99 494.72 109.79 482.00 107.00 C 469.27 104.22 454.32 99.30 440.78 101.78 C 427.24 104.26 413.33 106.46 401.78 112.78 C 390.23 119.09 378.38 122.73 367.92 129.92 C 357.46 137.11 347.86 142.25 338.25 150.25 C 328.64 158.25 319.49 164.05 309.75 171.75 C 300.02 179.46 290.43 185.38 280.92 192.92 C 271.41 200.46 261.76 207.44 252.75 214.75 C 243.75 222.07 234.50 230.15 225.92 237.92 C 217.34 245.68 207.96 254.40 199.25 262.25 C 190.54 270.09 181.03 277.36 172.25 285.25 C 163.47 293.14 155.67 302.18 147.10 310.10 C 138.53 318.02 130.63 326.20 121.75 334.75 C 112.87 343.30 107.37 352.09 99.08 362.08 C 90.80 372.07 87.31 382.73 83.00 396.00 C 78.69 409.28 83.88 424.18 86.00 438.00
C 81.70 434.37 76.15 430.78 72.75 425.25 C 69.35 419.71 64.90 415.13 62.08 408.92 C 59.25 402.71 57.87 394.05 59.93 386.93 C 61.98 379.80 61.61 372.13 65.00 365.00 C 68.39 357.87 62.67 346.55 63.00 360.00
C 50.99 343.88 55.32 318.37 62.00 300.00
C 53.56 294.19 43.66 285.13 39.25 273.75 C 34.83 262.38 40.47 244.25 45.77 233.77 C 51.07 223.29 57.84 211.74 63.92 201.92 C 70.00 192.10 77.11 183.07 84.75 173.75 C 92.39 164.44 98.69 155.34 107.75 146.75 C 116.82 138.17 123.21 130.22 132.10 122.10 C 140.98 113.98 149.51 105.73 158.25 98.25 C 166.98 90.77 174.83 82.55 184.25 75.25 C 193.66 67.94 203.05 61.55 214.07 56.07 C 225.09 50.59 236.33 44.01 249.07 41.07 C 261.82 38.14 275.99 33.88 290.00 33.00 C 304.01 32.12 322.40 28.67 337.00 30.00 C 351.60 31.33 367.78 32.29 381.69 34.31 C 395.61 36.32 409.63 39.50 422.22 43.78 C 434.81 48.06 444.00 54.40 456.03 58.98 C 468.05 63.55 476.05 72.67 488.00 77.00
M 283.00 313.00 
C 278.00 313.00 273.00 313.00 268.00 313.00
C 268.65 305.86 273.25 299.89 275.00 293.00
C 280.70 296.35 280.05 306.20 283.00 313.00
M 457.00 309.00 
C 450.21 310.61 451.24 301.46 450.00 297.00
C 452.84 300.34 455.99 304.68 457.00 309.00
M 498.00 370.00 
C 488.49 368.54 477.11 366.36 467.33 366.67 C 457.55 366.98 443.62 369.69 447.98 357.98 C 452.33 346.27 447.82 336.19 450.00 325.00 C 452.18 313.81 467.09 322.17 469.77 329.23 C 472.45 336.29 480.12 342.31 483.77 349.23 C 487.42 356.15 495.17 362.74 498.00 370.00
M 288.00 323.00 
C 295.49 337.12 302.97 350.97 312.00 364.00
C 283.77 363.77 255.52 363.09 229.00 369.00
C 233.21 356.29 245.12 351.97 251.30 339.30 C 257.49 326.64 274.91 324.09 288.00 323.00
M 520.00 508.00 
C 521.09 500.95 522.71 493.39 526.78 486.78 C 530.84 480.16 532.86 473.05 536.31 466.31 C 539.75 459.56 538.28 447.24 550.00 450.00
C 546.91 439.30 560.03 437.82 563.25 428.25 C 566.47 418.68 578.48 412.16 581.99 424.01 C 585.51 435.86 583.61 445.90 579.75 455.75 C 575.88 465.59 572.12 471.18 565.70 478.70 C 559.28 486.22 553.59 490.80 545.75 495.75 C 537.92 500.71 529.42 506.81 520.00 508.00
M 423.00 572.00 
C 419.29 572.25 420.11 568.65 422.00 567.00
C 423.96 568.10 420.93 570.40 423.00 572.00
M 386.00 618.00 
C 386.40 625.42 388.27 635.25 389.93 642.07 C 391.58 648.89 393.31 660.88 394.00 667.00 C 394.69 673.13 400.15 688.54 391.99 687.99 C 383.83 687.44 387.34 672.25 386.01 665.99 C 384.67 659.74 385.97 645.61 384.00 639.00 C 382.03 632.39 379.21 620.23 386.00 618.00 Z"/>
</g>
<g fill="None" fill-opacity="0.0" stroke="#000000" stroke-opacity="1.00" stroke-width="40"><path d="
M 488.00 77.00 
C 476.05 72.67 468.05 63.55 456.03 58.98 C 444.00 54.40 434.81 48.06 422.22 43.78 C 409.63 39.50 395.61 36.32 381.69 34.31 C 367.78 32.29 351.60 31.33 337.00 30.00 C 322.40 28.67 304.01 32.12 290.00 33.00 C 275.99 33.88 261.82 38.14 249.07 41.07 C 236.33 44.01 225.09 50.59 214.07 56.07 C 203.05 61.55 193.66 67.94 184.25 75.25 C 174.83 82.55 166.98 90.77 158.25 98.25 C 149.51 105.73 140.98 113.98 132.10 122.10 C 123.21 130.22 116.82 138.17 107.75 146.75 C 98.69 155.34 92.39 164.44 84.75 173.75 C 77.11 183.07 70.00 192.10 63.92 201.92 C 57.84 211.74 51.07 223.29 45.77 233.77 C 40.47 244.25 34.83 262.38 39.25 273.75 C 43.66 285.13 53.56 294.19 62.00 300.00
C 55.32 318.37 50.99 343.88 63.00 360.00
C 62.67 346.55 68.39 357.87 65.00 365.00 C 61.61 372.13 61.98 379.80 59.93 386.93 C 57.87 394.05 59.25 402.71 62.08 408.92 C 64.90 415.13 69.35 419.71 72.75 425.25 C 76.15 430.78 81.70 434.37 86.00 438.00
C 83.88 424.18 78.69 409.28 83.00 396.00 C 87.31 382.73 90.80 372.07 99.08 362.08 C 107.37 352.09 112.87 343.30 121.75 334.75 C 130.63 326.20 138.53 318.02 147.10 310.10 C 155.67 302.18 163.47 293.14 172.25 285.25 C 181.03 277.36 190.54 270.09 199.25 262.25 C 207.96 254.40 217.34 245.68 225.92 237.92 C 234.50 230.15 243.75 222.07 252.75 214.75 C 261.76 207.44 271.41 200.46 280.92 192.92 C 290.43 185.38 300.02 179.46 309.75 171.75 C 319.49 164.05 328.64 158.25 338.25 150.25 C 347.86 142.25 357.46 137.11 367.92 129.92 C 378.38 122.73 390.23 119.09 401.78 112.78 C 413.33 106.46 427.24 104.26 440.78 101.78 C 454.32 99.30 469.27 104.22 482.00 107.00 C 494.72 109.79 506.36 114.99 516.75 122.25 C 527.15 129.50 535.36 137.01 544.97 144.03 C 554.59 151.04 561.96 160.52 571.00 168.00
C 563.21 139.74 550.02 116.35 524.08 99.92 C 498.14 83.48 461.69 82.14 431.00 79.00
C 446.72 71.03 470.86 76.97 488.00 77.00
M 193.00 199.00 
C 192.17 207.02 182.02 213.59 175.75 220.75 C 169.49 227.92 163.42 235.51 156.25 242.25 C 149.08 248.98 144.00 258.07 137.25 265.25 C 130.50 272.42 126.25 281.68 120.08 289.08 C 113.90 296.47 109.44 305.55 103.25 313.25 C 97.05 320.95 91.93 331.01 85.00 337.00
C 88.00 318.59 101.48 300.05 111.78 283.78 C 122.07 267.50 136.43 252.87 149.25 238.25 C 162.07 223.63 177.32 209.95 193.00 199.00 Z"/>
</g>
<g fill="None" fill-opacity="0.0" stroke="#000000" stroke-opacity="0.53" stroke-width="40"><path d="
M 494.00 73.00 
C 490.52 69.45 486.78 66.52 482.00 64.00
C 484.16 65.83 490.05 70.18 494.00 73.00 Z"/>
</g>
<g fill="None" fill-opacity="0.0" stroke="#000000" stroke-opacity="0.76" stroke-width="40"><path d="
M 83.00 163.00 
C 81.45 164.78 80.70 167.44 79.00 169.00
C 84.52 165.64 88.92 155.74 90.00 154.00
C 87.54 156.75 86.18 160.29 83.00 163.00 Z"/>
</g>
<g fill="None" fill-opacity="0.0" stroke="#000000" stroke-opacity="0.30" stroke-width="40"><path d="
M 77.00 170.00 
C 77.23 169.74 78.62 169.23 79.00 169.00
C 80.70 167.44 81.45 164.78 83.00 163.00
C 80.39 165.23 78.77 167.04 77.00 170.00 Z"/>
</g>
<g fill="None" fill-opacity="0.0" stroke="#000000" stroke-opacity="1.00" stroke-width="40"><path d="
M 193.00 199.00 
C 177.32 209.95 162.07 223.63 149.25 238.25 C 136.43 252.87 122.07 267.50 111.78 283.78 C 101.48 300.05 88.00 318.59 85.00 337.00
C 91.93 331.01 97.05 320.95 103.25 313.25 C 109.44 305.55 113.90 296.47 120.08 289.08 C 126.25 281.68 130.50 272.42 137.25 265.25 C 144.00 258.07 149.08 248.98 156.25 242.25 C 163.42 235.51 169.49 227.92 175.75 220.75 C 182.02 213.59 192.17 207.02 193.00 199.00 Z"/>
</g>
<g fill="None" fill-opacity="0.0" stroke="#000000" stroke-opacity="0.73" stroke-width="40"><path d="
M 614.00 251.00 
C 612.90 247.78 611.43 244.85 610.00 242.00
C 611.19 245.22 612.62 248.08 614.00 251.00 Z"/>
</g>
<g fill="None" fill-opacity="0.0" stroke="#000000" stroke-opacity="1.00" stroke-width="40"><path d="
M 283.00 313.00 
C 280.05 306.20 280.70 296.35 275.00 293.00
C 273.25 299.89 268.65 305.86 268.00 313.00
C 273.00 313.00 278.00 313.00 283.00 313.00
M 277.00 295.00 
C 276.63 301.29 280.88 306.25 282.00 312.00
C 277.67 312.00 273.33 312.00 269.00 312.00
C 270.90 306.26 273.07 299.55 277.00 295.00 Z"/>
</g>
<g fill="None" fill-opacity="0.0" stroke="#000000" stroke-opacity="1.00" stroke-width="40"><path d="
M 277.00 295.00 
C 273.07 299.55 270.90 306.26 269.00 312.00
C 273.33 312.00 277.67 312.00 282.00 312.00
C 280.88 306.25 276.63 301.29 277.00 295.00 Z"/>
</g>
<g fill="None" fill-opacity="0.0" stroke="#000000" stroke-opacity="1.00" stroke-width="40"><path d="
M 457.00 309.00 
C 455.99 304.68 452.84 300.34 450.00 297.00
C 451.24 301.46 450.21 310.61 457.00 309.00 Z"/>
</g>
<g fill="None" fill-opacity="0.0" stroke="#000000" stroke-opacity="1.00" stroke-width="40"><path d="
M 498.00 370.00 
C 495.17 362.74 487.42 356.15 483.77 349.23 C 480.12 342.31 472.45 336.29 469.77 329.23 C 467.09 322.17 452.18 313.81 450.00 325.00 C 447.82 336.19 452.33 346.27 447.98 357.98 C 443.62 369.69 457.55 366.98 467.33 366.67 C 477.11 366.36 488.49 368.54 498.00 370.00 Z"/>
</g>
<g fill="None" fill-opacity="0.0" stroke="#000000" stroke-opacity="0.37" stroke-width="40"><path d="
M 48.00 342.00 
C 47.20 336.27 47.56 328.03 48.00 323.00
C 46.30 327.50 45.33 335.28 48.00 342.00 Z"/>
</g>
<g fill="None" fill-opacity="0.0" stroke="#000000" stroke-opacity="1.00" stroke-width="40"><path d="
M 288.00 323.00 
C 274.91 324.09 257.49 326.64 251.30 339.30 C 245.12 351.97 233.21 356.29 229.00 369.00
C 255.52 363.09 283.77 363.77 312.00 364.00
C 302.97 350.97 295.49 337.12 288.00 323.00 Z"/>
</g>
<g fill="None" fill-opacity="0.0" stroke="#000000" stroke-opacity="0.34" stroke-width="40"><path d="
M 634.00 357.00 
C 635.77 348.47 635.71 336.91 633.00 329.00
C 634.37 337.08 633.82 348.81 634.00 357.00 Z"/>
</g>
<g fill="None" fill-opacity="0.0" stroke="#000000" stroke-opacity="1.00" stroke-width="40"><path d="
M 190.00 406.00 
C 197.43 398.43 204.69 390.27 215.03 387.03 C 225.36 383.78 242.82 384.06 254.00 382.00
C 252.77 384.17 252.78 386.68 252.00 389.00
C 255.08 387.86 253.37 383.78 256.00 382.00
C 244.73 380.95 226.72 383.56 216.00 386.00 C 205.29 388.44 196.64 397.59 190.00 406.00 Z"/>
</g>
<g fill="None" fill-opacity="0.0" stroke="#000000" stroke-opacity="1.00" stroke-width="40"><path d="
M 490.00 444.00 
C 490.60 442.14 491.52 440.60 492.00 438.00
C 495.37 419.89 493.87 400.63 493.00 382.00
C 494.83 381.77 496.48 382.07 498.00 383.00
C 495.60 382.56 490.86 379.12 492.22 385.78 C 493.58 392.44 493.27 390.19 493.00 398.00 C 492.73 405.81 492.29 414.43 493.00 422.00 C 493.71 429.57 491.34 436.91 490.00 444.00 Z"/>
</g>
<g fill="None" fill-opacity="0.0" stroke="#000000" stroke-opacity="1.00" stroke-width="40"><path d="
M 190.00 406.00 
C 184.40 413.09 183.75 429.02 183.00 438.00 C 182.25 446.98 180.62 465.49 168.03 461.97 C 155.43 458.46 155.45 451.46 146.75 444.25 C 138.05 437.03 137.96 429.91 130.77 421.23 C 123.58 412.55 124.60 405.09 117.75 395.25 C 110.90 385.40 100.09 399.93 98.00 408.00
C 95.40 418.04 96.24 426.98 98.00 437.00
C 99.99 448.32 105.86 457.50 112.08 466.92 C 118.30 476.34 123.12 483.49 131.77 491.23 C 140.42 498.97 151.18 502.34 162.26 503.26 C 173.34 504.17 187.97 493.55 199.00 496.00
C 204.14 496.39 205.17 497.79 208.00 502.00
C 208.84 503.24 210.19 504.36 210.00 506.00
C 220.24 504.90 226.22 518.78 234.97 523.03 C 243.72 527.28 252.44 533.48 261.92 537.08 C 271.40 540.68 282.98 544.40 292.00 548.00
C 292.54 548.22 293.55 548.69 294.00 549.00
C 303.26 555.34 315.54 560.17 326.68 561.32 C 337.82 562.47 351.87 569.94 361.00 568.00
C 427.64 562.85 509.56 535.44 524.00 461.00
C 516.90 452.52 523.23 440.14 522.67 429.67 C 522.11 419.20 524.61 405.50 521.92 395.08 C 519.23 384.66 505.57 384.40 498.00 383.00
C 497.36 383.10 496.32 383.66 495.00 383.00
C 493.56 401.60 497.87 421.43 492.00 438.00
C 491.52 440.60 490.60 442.14 490.00 444.00
C 487.12 459.19 479.47 476.72 462.22 479.22 C 444.97 481.72 433.90 465.60 430.00 451.00
C 428.62 447.69 428.85 445.00 428.00 441.00
C 427.26 437.37 423.93 431.62 427.00 427.00
C 413.55 419.92 402.10 408.88 390.00 399.00
C 389.57 408.88 398.13 414.66 396.99 424.99 C 395.85 435.33 382.82 427.77 377.03 423.97 C 371.24 420.18 362.47 416.28 356.75 411.25 C 351.02 406.23 344.85 401.27 339.25 395.75 C 333.64 390.23 329.14 381.07 320.00 383.00
C 322.47 389.17 321.64 395.40 322.00 402.00
C 324.26 415.90 322.94 432.43 321.00 446.00
C 320.41 461.55 310.06 473.94 296.00 479.00
C 289.71 481.26 282.14 482.21 276.00 479.00
C 271.04 476.41 266.30 472.03 264.00 467.00
C 262.10 464.17 260.17 461.52 259.00 458.00
C 251.90 436.71 248.26 412.50 252.00 389.00
C 252.78 386.68 252.77 384.17 254.00 382.00
C 242.82 384.06 225.36 383.78 215.03 387.03 C 204.69 390.27 197.43 398.43 190.00 406.00 Z"/>
</g>
<g fill="None" fill-opacity="0.0" stroke="#000000" stroke-opacity="1.00" stroke-width="40"><path d="
M 492.00 438.00 
C 497.87 421.43 493.56 401.60 495.00 383.00
C 496.32 383.66 497.36 383.10 498.00 383.00
C 496.48 382.07 494.83 381.77 493.00 382.00
C 493.87 400.63 495.37 419.89 492.00 438.00 Z"/>
</g>
<g fill="None" fill-opacity="0.0" stroke="#000000" stroke-opacity="0.54" stroke-width="40"><path d="
M 53.00 405.00 
C 52.23 398.12 52.45 389.90 53.00 383.00
C 49.49 390.95 49.38 396.81 53.00 405.00 Z"/>
</g>
<g fill="None" fill-opacity="0.0" stroke="#000000" stroke-opacity="1.00" stroke-width="40"><path d="
M 321.00 446.00 
C 322.94 432.43 324.26 415.90 322.00 402.00
C 322.80 416.80 321.55 431.47 321.00 446.00 Z"/>
</g>
<g fill="None" fill-opacity="0.0" stroke="#000000" stroke-opacity="1.00" stroke-width="40"><path d="
M 98.00 437.00 
C 96.24 426.98 95.40 418.04 98.00 408.00
C 94.30 418.02 94.96 426.99 98.00 437.00 Z"/>
</g>
<g fill="None" fill-opacity="0.0" stroke="#000000" stroke-opacity="1.00" stroke-width="40"><path d="
M 520.00 508.00 
C 529.42 506.81 537.92 500.71 545.75 495.75 C 553.59 490.80 559.28 486.22 565.70 478.70 C 572.12 471.18 575.88 465.59 579.75 455.75 C 583.61 445.90 585.51 435.86 581.99 424.01 C 578.48 412.16 566.47 418.68 563.25 428.25 C 560.03 437.82 546.91 439.30 550.00 450.00
C 538.28 447.24 539.75 459.56 536.31 466.31 C 532.86 473.05 530.84 480.16 526.78 486.78 C 522.71 493.39 521.09 500.95 520.00 508.00 Z"/>
</g>
<g fill="None" fill-opacity="0.0" stroke="#000000" stroke-opacity="1.00" stroke-width="40"><path d="
M 428.00 441.00 
C 427.83 440.21 427.18 439.83 427.00 439.00
C 426.23 435.39 428.54 429.39 427.00 427.00
C 423.93 431.62 427.26 437.37 428.00 441.00 Z"/>
</g>
<g fill="None" fill-opacity="0.0" stroke="#000000" stroke-opacity="0.50" stroke-width="40"><path d="
M 67.00 433.00 
C 68.14 433.03 68.72 434.53 70.00 434.00
C 69.66 431.06 66.61 429.96 65.00 428.00
C 65.38 428.95 65.37 430.93 67.00 433.00 Z"/>
</g>
<g fill="None" fill-opacity="0.0" stroke="#000000" stroke-opacity="1.00" stroke-width="40"><path d="
M 428.00 441.00 
C 428.85 445.00 428.62 447.69 430.00 451.00
C 429.03 447.36 427.61 441.98 427.00 439.00
C 427.18 439.83 427.83 440.21 428.00 441.00 Z"/>
</g>
<g fill="None" fill-opacity="0.0" stroke="#000000" stroke-opacity="1.00" stroke-width="40"><path d="
M 264.00 467.00 
C 262.61 463.95 260.30 460.75 259.00 458.00
C 260.17 461.52 262.10 464.17 264.00 467.00 Z"/>
</g>
<g fill="None" fill-opacity="0.0" stroke="#000000" stroke-opacity="1.00" stroke-width="40"><path d="
M 296.00 479.00 
C 290.03 480.28 281.84 481.00 276.00 479.00
C 282.14 482.21 289.71 481.26 296.00 479.00 Z"/>
</g>
<g fill="None" fill-opacity="0.0" stroke="#000000" stroke-opacity="0.90" stroke-width="40"><path d="
M 200.00 497.00 
C 200.97 497.31 202.74 496.39 203.00 498.00
C 204.50 498.88 206.94 500.74 208.00 502.00
C 205.17 497.79 204.14 496.39 199.00 496.00
C 199.23 496.05 199.65 496.89 200.00 497.00 Z"/>
</g>
<g fill="None" fill-opacity="0.0" stroke="#000000" stroke-opacity="0.55" stroke-width="40"><path d="
M 198.00 504.00 
C 199.81 502.54 201.17 500.82 203.00 500.00
C 202.76 499.68 203.00 499.00 203.00 499.00
C 203.00 498.50 203.00 498.00 203.00 498.00
C 202.74 496.39 200.97 497.31 200.00 497.00
C 200.18 498.29 198.19 503.77 198.00 504.00 Z"/>
</g>
<g fill="None" fill-opacity="0.0" stroke="#000000" stroke-opacity="0.59" stroke-width="40"><path d="
M 203.00 499.00 
C 205.87 501.01 206.84 503.53 209.00 506.00
C 209.00 506.00 209.51 506.05 210.00 506.00
C 210.19 504.36 208.84 503.24 208.00 502.00
C 206.94 500.74 204.50 498.88 203.00 498.00
C 203.00 498.00 203.00 498.50 203.00 499.00 Z"/>
</g>
<g fill="None" fill-opacity="0.0" stroke="#000000" stroke-opacity="0.13" stroke-width="40"><path d="
M 203.00 500.00 
C 204.81 502.37 206.04 504.24 207.00 507.00
C 206.76 507.48 209.18 505.88 209.00 506.00
C 206.84 503.53 205.87 501.01 203.00 499.00
C 203.00 499.00 202.76 499.68 203.00 500.00 Z"/>
</g>
<g fill="None" fill-opacity="0.0" stroke="#000000" stroke-opacity="0.52" stroke-width="40"><path d="
M 523.00 518.00 
C 526.21 516.92 528.15 516.86 531.00 515.00
C 527.96 516.07 524.01 517.36 523.00 518.00 Z"/>
</g>
<g fill="None" fill-opacity="0.0" stroke="#000000" stroke-opacity="0.51" stroke-width="40"><path d="
M 469.00 550.00 
C 471.28 548.73 473.63 547.47 476.00 546.00
C 476.03 544.86 477.53 544.28 477.00 543.00
C 473.81 544.28 470.00 549.09 469.00 550.00 Z"/>
</g>
<g fill="None" fill-opacity="0.0" stroke="#000000" stroke-opacity="1.00" stroke-width="40"><path d="
M 300.00 569.00 
C 300.48 561.15 300.40 554.98 294.00 549.00
C 293.55 548.69 292.54 548.22 292.00 548.00
C 299.04 552.83 299.62 561.34 300.00 569.00 Z"/>
</g>
<g fill="None" fill-opacity="0.0" stroke="#000000" stroke-opacity="1.00" stroke-width="40"><path d="
M 300.00 569.00 
C 300.11 571.27 299.64 573.76 300.00 576.00
C 302.37 581.93 312.26 579.84 316.69 582.31 C 321.13 584.78 328.56 588.45 334.67 589.33 C 340.79 590.20 348.55 593.07 356.00 592.00
C 356.71 589.38 356.13 585.36 359.00 584.00
C 360.08 578.93 356.70 571.51 361.00 568.00
C 351.87 569.94 337.82 562.47 326.68 561.32 C 315.54 560.17 303.26 555.34 294.00 549.00
C 300.40 554.98 300.48 561.15 300.00 569.00 Z"/>
</g>
<g fill="None" fill-opacity="0.0" stroke="#000000" stroke-opacity="1.00" stroke-width="40"><path d="
M 333.00 721.00 
L 534.00 721.00
C 534.00 710.82 525.89 706.65 519.75 700.25 C 513.62 693.85 508.42 689.60 502.75 683.25 C 497.08 676.90 491.39 671.69 485.75 665.25 C 480.12 658.80 476.53 652.17 471.25 645.75 C 465.97 639.34 461.17 633.69 455.75 627.25 C 450.34 620.81 443.98 616.85 438.25 609.75 C 432.52 602.65 425.71 614.17 417.23 615.23 C 408.75 616.29 401.65 624.70 393.00 625.00
C 393.13 636.63 399.22 647.74 400.00 659.00 C 400.78 670.26 402.95 682.82 399.00 693.00
C 407.66 699.63 398.25 713.83 389.00 706.00
C 388.49 701.35 387.53 696.89 388.00 692.00
C 377.96 690.43 381.80 679.32 381.00 672.00 C 380.20 664.68 380.19 653.95 379.00 647.00 C 377.81 640.06 379.02 628.70 370.00 632.00
C 368.58 625.06 377.09 623.64 377.70 617.70 C 378.31 611.75 390.48 610.91 389.00 618.00
C 400.96 614.30 408.49 610.41 420.30 605.30 C 432.12 600.19 429.04 584.07 418.70 578.30 C 408.36 572.53 395.73 572.08 384.00 577.00
C 389.76 597.55 363.57 611.15 354.00 626.00
C 347.08 625.24 342.48 619.24 336.25 614.75 C 330.01 610.26 326.17 604.36 319.23 600.77 C 312.28 597.18 307.83 593.20 300.75 589.25 C 293.66 585.30 286.39 583.59 278.22 580.78 C 270.05 577.97 263.01 577.46 254.08 573.92 C 245.15 570.38 262.90 562.81 260.00 558.00
C 264.80 558.77 268.95 553.31 272.00 559.00
C 273.31 556.90 270.87 554.20 274.00 553.00
C 259.60 550.39 248.61 552.16 234.08 556.08 C 219.55 560.01 225.83 578.76 218.25 587.25 C 210.66 595.73 196.74 600.69 200.00 616.00
C 208.51 615.25 216.62 616.48 225.00 615.00 C 233.38 613.52 242.42 614.10 251.00 614.00 C 259.58 613.90 267.83 615.06 276.00 616.00 C 284.17 616.94 292.12 616.95 299.78 619.22 C 307.44 621.49 313.06 624.11 317.75 617.75 C 322.45 611.40 333.33 623.02 330.00 629.00
C 334.26 629.00 340.64 630.04 341.00 635.00
C 338.19 635.28 335.51 634.80 333.00 634.00
C 328.70 642.38 333.35 654.21 333.01 663.99 C 332.66 673.77 337.15 685.38 336.00 695.00 C 334.85 704.62 334.94 712.42 333.00 721.00 Z"/>
</g>
<g fill="None" fill-opacity="0.0" stroke="#000000" stroke-opacity="0.32" stroke-width="40"><path d="
M 463.00 552.00 
C 459.48 553.71 455.42 556.26 452.00 558.00
C 456.96 557.37 460.85 554.03 465.00 552.00
C 464.51 552.05 464.25 551.62 463.00 552.00 Z"/>
</g>
<g fill="None" fill-opacity="0.0" stroke="#000000" stroke-opacity="0.71" stroke-width="40"><path d="
M 450.00 558.00 
C 450.49 557.94 451.51 558.06 452.00 558.00
C 455.42 556.26 459.48 553.71 463.00 552.00
C 458.34 553.41 454.18 556.07 450.00 558.00 Z"/>
</g>
<g fill="None" fill-opacity="0.0" stroke="#000000" stroke-opacity="0.67" stroke-width="40"><path d="
M 423.00 572.00 
C 420.93 570.40 423.96 568.10 422.00 567.00
C 420.11 568.65 419.29 572.25 423.00 572.00 Z"/>
</g>
<g fill="None" fill-opacity="0.0" stroke="#000000" stroke-opacity="1.00" stroke-width="40"><path d="
M 359.00 584.00 
C 358.83 584.78 358.19 585.19 358.00 586.00
C 358.32 584.27 361.00 579.78 360.00 577.00 C 359.00 574.22 359.37 569.73 361.00 568.00
C 356.70 571.51 360.08 578.93 359.00 584.00 Z"/>
</g>
<g fill="None" fill-opacity="0.0" stroke="#000000" stroke-opacity="1.00" stroke-width="40"><path d="
M 358.00 586.00 
C 358.19 585.19 358.83 584.78 359.00 584.00
C 356.13 585.36 356.71 589.38 356.00 592.00
C 348.55 593.07 340.79 590.20 334.67 589.33 C 328.56 588.45 321.13 584.78 316.69 582.31 C 312.26 579.84 302.37 581.93 300.00 576.00
C 300.00 577.33 300.00 578.67 300.00 580.00
C 309.42 582.49 317.21 589.63 325.75 594.25 C 334.30 598.86 339.68 606.31 346.75 613.25 C 353.83 620.19 363.11 604.02 367.00 599.00
C 361.30 597.56 356.48 592.37 358.00 586.00 Z"/>
</g>
<g fill="None" fill-opacity="0.0" stroke="#000000" stroke-opacity="0.51" stroke-width="40"><path d="
M 195.00 624.00 
C 194.53 618.47 192.70 608.53 193.00 602.00
C 190.05 610.49 192.15 616.01 195.00 624.00 Z"/>
</g>
<g fill="None" fill-opacity="0.0" stroke="#000000" stroke-opacity="1.00" stroke-width="40"><path d="
M 386.00 618.00 
C 379.21 620.23 382.03 632.39 384.00 639.00 C 385.97 645.61 384.67 659.74 386.01 665.99 C 387.34 672.25 383.83 687.44 391.99 687.99 C 400.15 688.54 394.69 673.13 394.00 667.00 C 393.31 660.88 391.58 648.89 389.93 642.07 C 388.27 635.25 386.40 625.42 386.00 618.00 Z"/>
</g>
<g fill="None" fill-opacity="0.0" stroke="#000000" stroke-opacity="1.00" stroke-width="40"><path d="
M 142.00 721.00 
L 324.00 721.00
C 320.24 716.71 322.70 710.31 322.00 705.00
C 314.36 700.93 313.86 690.88 314.00 681.00 C 314.14 671.12 312.77 659.87 314.00 649.00 C 315.23 638.13 313.06 631.10 302.22 629.78 C 291.39 628.46 284.40 626.79 274.22 625.78 C 264.05 624.77 254.48 622.71 244.22 624.22 C 233.96 625.73 225.02 625.27 215.00 624.00
C 215.39 628.41 209.14 629.69 206.00 628.00
C 208.49 630.99 208.22 634.17 203.00 633.00
C 201.98 635.09 201.68 637.23 200.00 639.00
C 221.75 639.10 238.45 663.18 244.00 682.00
C 229.00 667.92 218.44 647.49 199.00 641.00
C 186.89 652.54 179.45 667.59 170.26 681.26 C 161.06 694.93 149.99 706.57 142.00 721.00 Z"/>
</g>
<g fill="None" fill-opacity="0.0" stroke="#000000" stroke-opacity="0.51" stroke-width="40"><path d="
M 152.00 696.00 
C 153.10 694.61 154.06 692.14 155.00 691.00
C 154.58 691.27 153.56 691.28 151.77 692.77 C 149.99 694.26 151.71 696.84 152.00 696.00 Z"/>
</g>
<g fill="None" fill-opacity="0.0" stroke="#000000" stroke-opacity="0.46" stroke-width="40"><path d="
M 538.00 707.00 
C 538.95 708.43 540.33 710.62 541.00 712.00
C 540.40 708.43 540.05 708.71 538.00 707.00 Z"/>
</g>
<g fill="#000000" fill-opacity="0.00" stroke="None">
<path d="
M 0.00 721.00 
L 135.00 721.00
C 137.76 711.80 145.71 703.97 152.00 696.00
C 151.71 696.84 149.99 694.26 151.77 692.77 C 153.56 691.28 154.58 691.27 155.00 691.00
C 162.90 681.38 167.23 669.24 174.30 659.30 C 181.38 649.37 185.55 638.56 196.00 630.00
C 194.58 628.33 195.11 626.04 195.00 624.00
C 192.15 616.01 190.05 610.49 193.00 602.00
C 193.56 600.40 196.01 599.54 194.00 597.00
C 201.60 594.12 203.61 588.39 210.25 583.25 C 216.89 578.10 215.20 567.17 216.00 560.00
C 221.54 560.36 223.06 551.16 229.25 549.25 C 235.43 547.33 244.97 546.72 249.00 544.00
C 237.34 532.73 212.63 527.60 207.00 507.00
C 206.04 504.24 204.81 502.37 203.00 500.00
C 201.17 500.82 199.81 502.54 198.00 504.00
C 194.40 506.90 189.90 506.62 188.00 510.00
C 184.57 508.81 179.31 507.02 178.00 512.00
C 166.82 511.59 158.34 512.97 148.32 510.34 C 138.30 507.70 130.86 504.24 122.75 497.25 C 114.64 490.26 112.41 481.89 105.25 473.75 C 98.08 465.62 96.07 457.30 89.25 449.75 C 82.43 442.20 72.42 442.74 67.00 433.00
C 65.37 430.93 65.38 428.95 65.00 428.00
C 59.57 421.39 54.03 414.19 53.00 405.00
C 49.38 396.81 49.49 390.95 53.00 383.00
C 54.12 368.85 53.90 356.85 48.00 342.00
C 45.33 335.28 46.30 327.50 48.00 323.00
C 48.59 316.18 51.86 308.59 51.00 301.00
C 40.77 296.04 41.80 286.37 34.08 277.92 C 26.35 269.48 29.99 257.33 33.33 247.33 C 36.67 237.32 40.29 229.13 45.77 219.77 C 51.25 210.41 53.75 200.91 60.92 192.92 C 68.09 184.92 71.37 176.63 77.00 170.00
C 78.77 167.04 80.39 165.23 83.00 163.00
C 86.18 160.29 87.54 156.75 90.00 154.00
C 95.98 147.31 104.12 140.26 111.25 132.25 C 118.37 124.23 126.74 117.16 134.25 109.25 C 141.75 101.34 149.45 93.85 157.75 86.75 C 166.05 79.65 175.07 73.26 184.22 67.22 C 193.38 61.19 201.09 54.35 211.23 49.23 C 221.37 44.11 231.47 39.09 241.70 35.70 C 251.92 32.31 263.90 30.14 273.70 26.36 C 283.49 22.58 297.46 26.41 309.00 23.00 C 320.54 19.59 333.68 21.84 346.00 20.00
C 350.92 25.80 360.43 22.22 367.00 22.00
C 371.30 28.31 379.98 21.70 386.22 25.22 C 392.46 28.74 400.96 27.21 407.01 29.01 C 413.06 30.81 420.98 36.43 427.67 37.33 C 434.37 38.22 441.36 44.90 447.74 46.26 C 454.13 47.61 458.93 50.80 464.70 54.30 C 470.46 57.81 475.15 60.65 482.00 64.00
C 486.78 66.52 490.52 69.45 494.00 73.00
C 507.80 82.86 520.15 88.97 535.25 98.80 C 550.34 108.63 557.36 123.75 566.30 138.70 C 575.25 153.64 576.88 176.30 586.31 191.69 C 595.73 207.09 602.12 226.24 610.00 242.00
C 611.43 244.85 612.90 247.78 614.00 251.00
C 616.40 258.02 618.02 264.44 620.75 271.25 C 623.49 278.05 623.60 286.86 626.33 293.67 C 629.06 300.49 627.70 310.78 633.00 315.00
C 633.83 319.78 630.20 324.53 633.00 329.00
C 635.71 336.91 635.77 348.47 634.00 357.00
C 633.35 360.12 634.78 361.95 631.00 362.00
C 630.51 364.73 631.30 367.02 633.00 369.00
C 630.49 369.83 628.78 374.31 628.00 378.00
C 617.75 375.67 622.62 361.99 617.01 354.99 C 611.40 347.99 609.00 365.90 607.23 372.23 C 605.45 378.56 605.31 391.48 600.23 398.23 C 595.15 404.98 586.85 411.49 590.00 421.00
C 600.34 432.63 592.86 449.22 588.25 460.39 C 583.63 471.56 577.11 483.87 566.25 493.25 C 555.39 502.63 543.45 508.16 531.00 515.00
C 528.15 516.86 526.21 516.92 523.00 518.00
C 518.09 521.10 508.86 519.04 504.75 524.75 C 500.65 530.46 495.62 531.74 490.75 535.75 C 485.89 539.77 481.26 542.74 476.00 546.00
C 473.63 547.47 471.28 548.73 469.00 550.00
C 467.79 550.68 466.34 551.35 465.00 552.00
C 460.85 554.03 456.96 557.37 452.00 558.00
C 451.51 558.06 450.49 557.94 450.00 558.00
C 441.04 559.14 428.01 564.83 423.00 571.00
C 429.11 577.85 437.14 582.97 435.22 592.22 C 433.30 601.48 446.00 604.23 451.75 611.25 C 457.50 618.27 465.20 622.69 469.77 630.23 C 474.34 637.78 478.83 640.83 483.75 648.25 C 488.68 655.67 495.58 661.01 500.77 668.23 C 505.97 675.45 513.92 680.36 519.75 687.25 C 525.58 694.13 532.72 699.87 538.00 707.00
C 540.05 708.71 540.40 708.43 541.00 712.00
C 542.65 715.40 541.28 716.60 543.00 721.00
L 693.00 721.00
L 693.00 0.00
L 0.00 0.00
L 0.00 721.00 Z"/>
</g>
<g fill="#020202" fill-opacity="1.00" stroke="None">
<path d="
M 90.00 154.00 
C 88.92 155.74 84.52 165.64 79.00 169.00
C 78.62 169.23 77.23 169.74 77.00 170.00
C 71.37 176.63 68.09 184.92 60.92 192.92 C 53.75 200.91 51.25 210.41 45.77 219.77 C 40.29 229.13 36.67 237.32 33.33 247.33 C 29.99 257.33 26.35 269.48 34.08 277.92 C 41.80 286.37 40.77 296.04 51.00 301.00
C 51.86 308.59 48.59 316.18 48.00 323.00
C 47.56 328.03 47.20 336.27 48.00 342.00
C 53.90 356.85 54.12 368.85 53.00 383.00
C 52.45 389.90 52.23 398.12 53.00 405.00
C 54.03 414.19 59.57 421.39 65.00 428.00
C 66.61 429.96 69.66 431.06 70.00 434.00
C 68.72 434.53 68.14 433.03 67.00 433.00
C 72.42 442.74 82.43 442.20 89.25 449.75 C 96.07 457.30 98.08 465.62 105.25 473.75 C 112.41 481.89 114.64 490.26 122.75 497.25 C 130.86 504.24 138.30 507.70 148.32 510.34 C 158.34 512.97 166.82 511.59 178.00 512.00
C 179.31 507.02 184.57 508.81 188.00 510.00
C 189.90 506.62 194.40 506.90 198.00 504.00
C 198.19 503.77 200.18 498.29 200.00 497.00
C 199.65 496.89 199.23 496.05 199.00 496.00
C 187.97 493.55 173.34 504.17 162.26 503.26 C 151.18 502.34 140.42 498.97 131.77 491.23 C 123.12 483.49 118.30 476.34 112.08 466.92 C 105.86 457.50 99.99 448.32 98.00 437.00
C 94.96 426.99 94.30 418.02 98.00 408.00
C 100.09 399.93 110.90 385.40 117.75 395.25 C 124.60 405.09 123.58 412.55 130.77 421.23 C 137.96 429.91 138.05 437.03 146.75 444.25 C 155.45 451.46 155.43 458.46 168.03 461.97 C 180.62 465.49 182.25 446.98 183.00 438.00 C 183.75 429.02 184.40 413.09 190.00 406.00
C 196.64 397.59 205.29 388.44 216.00 386.00 C 226.72 383.56 244.73 380.95 256.00 382.00
C 253.37 383.78 255.08 387.86 252.00 389.00
C 248.26 412.50 251.90 436.71 259.00 458.00
C 260.30 460.75 262.61 463.95 264.00 467.00
C 266.30 472.03 271.04 476.41 276.00 479.00
C 281.84 481.00 290.03 480.28 296.00 479.00
C 310.06 473.94 320.41 461.55 321.00 446.00
C 321.55 431.47 322.80 416.80 322.00 402.00
C 321.64 395.40 322.47 389.17 320.00 383.00
C 329.14 381.07 333.64 390.23 339.25 395.75 C 344.85 401.27 351.02 406.23 356.75 411.25 C 362.47 416.28 371.24 420.18 377.03 423.97 C 382.82 427.77 395.85 435.33 396.99 424.99 C 398.13 414.66 389.57 408.88 390.00 399.00
C 402.10 408.88 413.55 419.92 427.00 427.00
C 428.54 429.39 426.23 435.39 427.00 439.00
C 427.61 441.98 429.03 447.36 430.00 451.00
C 433.90 465.60 444.97 481.72 462.22 479.22 C 479.47 476.72 487.12 459.19 490.00 444.00
C 491.34 436.91 493.71 429.57 493.00 422.00 C 492.29 414.43 492.73 405.81 493.00 398.00 C 493.27 390.19 493.58 392.44 492.22 385.78 C 490.86 379.12 495.60 382.56 498.00 383.00
C 505.57 384.40 519.23 384.66 521.92 395.08 C 524.61 405.50 522.11 419.20 522.67 429.67 C 523.23 440.14 516.90 452.52 524.00 461.00
C 509.56 535.44 427.64 562.85 361.00 568.00
C 359.37 569.73 359.00 574.22 360.00 577.00 C 361.00 579.78 358.32 584.27 358.00 586.00
C 356.48 592.37 361.30 597.56 367.00 599.00
C 363.11 604.02 353.83 620.19 346.75 613.25 C 339.68 606.31 334.30 598.86 325.75 594.25 C 317.21 589.63 309.42 582.49 300.00 580.00
C 300.00 578.67 300.00 577.33 300.00 576.00
C 299.64 573.76 300.11 571.27 300.00 569.00
C 299.62 561.34 299.04 552.83 292.00 548.00
C 282.98 544.40 271.40 540.68 261.92 537.08 C 252.44 533.48 243.72 527.28 234.97 523.03 C 226.22 518.78 220.24 504.90 210.00 506.00
C 209.51 506.05 209.00 506.00 209.00 506.00
C 209.18 505.88 206.76 507.48 207.00 507.00
C 212.63 527.60 237.34 532.73 249.00 544.00
C 244.97 546.72 235.43 547.33 229.25 549.25 C 223.06 551.16 221.54 560.36 216.00 560.00
C 215.20 567.17 216.89 578.10 210.25 583.25 C 203.61 588.39 201.60 594.12 194.00 597.00
C 196.01 599.54 193.56 600.40 193.00 602.00
C 192.70 608.53 194.53 618.47 195.00 624.00
C 195.11 626.04 194.58 628.33 196.00 630.00
C 185.55 638.56 181.38 649.37 174.30 659.30 C 167.23 669.24 162.90 681.38 155.00 691.00
C 154.06 692.14 153.10 694.61 152.00 696.00
C 145.71 703.97 137.76 711.80 135.00 721.00
L 142.00 721.00
C 149.99 706.57 161.06 694.93 170.26 681.26 C 179.45 667.59 186.89 652.54 199.00 641.00
C 218.44 647.49 229.00 667.92 244.00 682.00
C 238.45 663.18 221.75 639.10 200.00 639.00
C 201.68 637.23 201.98 635.09 203.00 633.00
C 208.22 634.17 208.49 630.99 206.00 628.00
C 209.14 629.69 215.39 628.41 215.00 624.00
C 225.02 625.27 233.96 625.73 244.22 624.22 C 254.48 622.71 264.05 624.77 274.22 625.78 C 284.40 626.79 291.39 628.46 302.22 629.78 C 313.06 631.10 315.23 638.13 314.00 649.00 C 312.77 659.87 314.14 671.12 314.00 681.00 C 313.86 690.88 314.36 700.93 322.00 705.00
C 322.70 710.31 320.24 716.71 324.00 721.00
L 333.00 721.00
C 334.94 712.42 334.85 704.62 336.00 695.00 C 337.15 685.38 332.66 673.77 333.01 663.99 C 333.35 654.21 328.70 642.38 333.00 634.00
C 335.51 634.80 338.19 635.28 341.00 635.00
C 340.64 630.04 334.26 629.00 330.00 629.00
C 333.33 623.02 322.45 611.40 317.75 617.75 C 313.06 624.11 307.44 621.49 299.78 619.22 C 292.12 616.95 284.17 616.94 276.00 616.00 C 267.83 615.06 259.58 613.90 251.00 614.00 C 242.42 614.10 233.38 613.52 225.00 615.00 C 216.62 616.48 208.51 615.25 200.00 616.00
C 196.74 600.69 210.66 595.73 218.25 587.25 C 225.83 578.76 219.55 560.01 234.08 556.08 C 248.61 552.16 259.60 550.39 274.00 553.00
C 270.87 554.20 273.31 556.90 272.00 559.00
C 268.95 553.31 264.80 558.77 260.00 558.00
C 262.90 562.81 245.15 570.38 254.08 573.92 C 263.01 577.46 270.05 577.97 278.22 580.78 C 286.39 583.59 293.66 585.30 300.75 589.25 C 307.83 593.20 312.28 597.18 319.23 600.77 C 326.17 604.36 330.01 610.26 336.25 614.75 C 342.48 619.24 347.08 625.24 354.00 626.00
C 363.57 611.15 389.76 597.55 384.00 577.00
C 395.73 572.08 408.36 572.53 418.70 578.30 C 429.04 584.07 432.12 600.19 420.30 605.30 C 408.49 610.41 400.96 614.30 389.00 618.00
C 390.48 610.91 378.31 611.75 377.70 617.70 C 377.09 623.64 368.58 625.06 370.00 632.00
C 379.02 628.70 377.81 640.06 379.00 647.00 C 380.19 653.95 380.20 664.68 381.00 672.00 C 381.80 679.32 377.96 690.43 388.00 692.00
C 387.53 696.89 388.49 701.35 389.00 706.00
C 398.25 713.83 407.66 699.63 399.00 693.00
C 402.95 682.82 400.78 670.26 400.00 659.00 C 399.22 647.74 393.13 636.63 393.00 625.00
C 401.65 624.70 408.75 616.29 417.23 615.23 C 425.71 614.17 432.52 602.65 438.25 609.75 C 443.98 616.85 450.34 620.81 455.75 627.25 C 461.17 633.69 465.97 639.34 471.25 645.75 C 476.53 652.17 480.12 658.80 485.75 665.25 C 491.39 671.69 497.08 676.90 502.75 683.25 C 508.42 689.60 513.62 693.85 519.75 700.25 C 525.89 706.65 534.00 710.82 534.00 721.00
L 543.00 721.00
C 541.28 716.60 542.65 715.40 541.00 712.00
C 540.33 710.62 538.95 708.43 538.00 707.00
C 532.72 699.87 525.58 694.13 519.75 687.25 C 513.92 680.36 505.97 675.45 500.77 668.23 C 495.58 661.01 488.68 655.67 483.75 648.25 C 478.83 640.83 474.34 637.78 469.77 630.23 C 465.20 622.69 457.50 618.27 451.75 611.25 C 446.00 604.23 433.30 601.48 435.22 592.22 C 437.14 582.97 429.11 577.85 423.00 571.00
C 428.01 564.83 441.04 559.14 450.00 558.00
C 454.18 556.07 458.34 553.41 463.00 552.00
C 464.25 551.62 464.51 552.05 465.00 552.00
C 466.34 551.35 467.79 550.68 469.00 550.00
C 470.00 549.09 473.81 544.28 477.00 543.00
C 477.53 544.28 476.03 544.86 476.00 546.00
C 481.26 542.74 485.89 539.77 490.75 535.75 C 495.62 531.74 500.65 530.46 504.75 524.75 C 508.86 519.04 518.09 521.10 523.00 518.00
C 524.01 517.36 527.96 516.07 531.00 515.00
C 543.45 508.16 555.39 502.63 566.25 493.25 C 577.11 483.87 583.63 471.56 588.25 460.39 C 592.86 449.22 600.34 432.63 590.00 421.00
C 586.85 411.49 595.15 404.98 600.23 398.23 C 605.31 391.48 605.45 378.56 607.23 372.23 C 609.00 365.90 611.40 347.99 617.01 354.99 C 622.62 361.99 617.75 375.67 628.00 378.00
C 628.78 374.31 630.49 369.83 633.00 369.00
C 631.30 367.02 630.51 364.73 631.00 362.00
C 634.78 361.95 633.35 360.12 634.00 357.00
C 633.82 348.81 634.37 337.08 633.00 329.00
C 630.20 324.53 633.83 319.78 633.00 315.00
C 627.70 310.78 629.06 300.49 626.33 293.67 C 623.60 286.86 623.49 278.05 620.75 271.25 C 618.02 264.44 616.40 258.02 614.00 251.00
C 612.62 248.08 611.19 245.22 610.00 242.00
C 602.12 226.24 595.73 207.09 586.31 191.69 C 576.88 176.30 575.25 153.64 566.30 138.70 C 557.36 123.75 550.34 108.63 535.25 98.80 C 520.15 88.97 507.80 82.86 494.00 73.00
C 490.05 70.18 484.16 65.83 482.00 64.00
C 475.15 60.65 470.46 57.81 464.70 54.30 C 458.93 50.80 454.13 47.61 447.74 46.26 C 441.36 44.90 434.37 38.22 427.67 37.33 C 420.98 36.43 413.06 30.81 407.01 29.01 C 400.96 27.21 392.46 28.74 386.22 25.22 C 379.98 21.70 371.30 28.31 367.00 22.00
C 360.43 22.22 350.92 25.80 346.00 20.00
C 333.68 21.84 320.54 19.59 309.00 23.00 C 297.46 26.41 283.49 22.58 273.70 26.36 C 263.90 30.14 251.92 32.31 241.70 35.70 C 231.47 39.09 221.37 44.11 211.23 49.23 C 201.09 54.35 193.38 61.19 184.22 67.22 C 175.07 73.26 166.05 79.65 157.75 86.75 C 149.45 93.85 141.75 101.34 134.25 109.25 C 126.74 117.16 118.37 124.23 111.25 132.25 C 104.12 140.26 95.98 147.31 90.00 154.00
M 488.00 77.00 
C 470.86 76.97 446.72 71.03 431.00 79.00
C 461.69 82.14 498.14 83.48 524.08 99.92 C 550.02 116.35 563.21 139.74 571.00 168.00
C 561.96 160.52 554.59 151.04 544.97 144.03 C 535.36 137.01 527.15 129.50 516.75 122.25 C 506.36 114.99 494.72 109.79 482.00 107.00 C 469.27 104.22 454.32 99.30 440.78 101.78 C 427.24 104.26 413.33 106.46 401.78 112.78 C 390.23 119.09 378.38 122.73 367.92 129.92 C 357.46 137.11 347.86 142.25 338.25 150.25 C 328.64 158.25 319.49 164.05 309.75 171.75 C 300.02 179.46 290.43 185.38 280.92 192.92 C 271.41 200.46 261.76 207.44 252.75 214.75 C 243.75 222.07 234.50 230.15 225.92 237.92 C 217.34 245.68 207.96 254.40 199.25 262.25 C 190.54 270.09 181.03 277.36 172.25 285.25 C 163.47 293.14 155.67 302.18 147.10 310.10 C 138.53 318.02 130.63 326.20 121.75 334.75 C 112.87 343.30 107.37 352.09 99.08 362.08 C 90.80 372.07 87.31 382.73 83.00 396.00 C 78.69 409.28 83.88 424.18 86.00 438.00
C 81.70 434.37 76.15 430.78 72.75 425.25 C 69.35 419.71 64.90 415.13 62.08 408.92 C 59.25 402.71 57.87 394.05 59.93 386.93 C 61.98 379.80 61.61 372.13 65.00 365.00 C 68.39 357.87 62.67 346.55 63.00 360.00
C 50.99 343.88 55.32 318.37 62.00 300.00
C 53.56 294.19 43.66 285.13 39.25 273.75 C 34.83 262.38 40.47 244.25 45.77 233.77 C 51.07 223.29 57.84 211.74 63.92 201.92 C 70.00 192.10 77.11 183.07 84.75 173.75 C 92.39 164.44 98.69 155.34 107.75 146.75 C 116.82 138.17 123.21 130.22 132.10 122.10 C 140.98 113.98 149.51 105.73 158.25 98.25 C 166.98 90.77 174.83 82.55 184.25 75.25 C 193.66 67.94 203.05 61.55 214.07 56.07 C 225.09 50.59 236.33 44.01 249.07 41.07 C 261.82 38.14 275.99 33.88 290.00 33.00 C 304.01 32.12 322.40 28.67 337.00 30.00 C 351.60 31.33 367.78 32.29 381.69 34.31 C 395.61 36.32 409.63 39.50 422.22 43.78 C 434.81 48.06 444.00 54.40 456.03 58.98 C 468.05 63.55 476.05 72.67 488.00 77.00
M 283.00 313.00 
C 278.00 313.00 273.00 313.00 268.00 313.00
C 268.65 305.86 273.25 299.89 275.00 293.00
C 280.70 296.35 280.05 306.20 283.00 313.00
M 457.00 309.00 
C 450.21 310.61 451.24 301.46 450.00 297.00
C 452.84 300.34 455.99 304.68 457.00 309.00
M 498.00 370.00 
C 488.49 368.54 477.11 366.36 467.33 366.67 C 457.55 366.98 443.62 369.69 447.98 357.98 C 452.33 346.27 447.82 336.19 450.00 325.00 C 452.18 313.81 467.09 322.17 469.77 329.23 C 472.45 336.29 480.12 342.31 483.77 349.23 C 487.42 356.15 495.17 362.74 498.00 370.00
M 288.00 323.00 
C 295.49 337.12 302.97 350.97 312.00 364.00
C 283.77 363.77 255.52 363.09 229.00 369.00
C 233.21 356.29 245.12 351.97 251.30 339.30 C 257.49 326.64 274.91 324.09 288.00 323.00
M 520.00 508.00 
C 521.09 500.95 522.71 493.39 526.78 486.78 C 530.84 480.16 532.86 473.05 536.31 466.31 C 539.75 459.56 538.28 447.24 550.00 450.00
C 546.91 439.30 560.03 437.82 563.25 428.25 C 566.47 418.68 578.48 412.16 581.99 424.01 C 585.51 435.86 583.61 445.90 579.75 455.75 C 575.88 465.59 572.12 471.18 565.70 478.70 C 559.28 486.22 553.59 490.80 545.75 495.75 C 537.92 500.71 529.42 506.81 520.00 508.00
M 423.00 572.00 
C 419.29 572.25 420.11 568.65 422.00 567.00
C 423.96 568.10 420.93 570.40 423.00 572.00
M 386.00 618.00 
C 386.40 625.42 388.27 635.25 389.93 642.07 C 391.58 648.89 393.31 660.88 394.00 667.00 C 394.69 673.13 400.15 688.54 391.99 687.99 C 383.83 687.44 387.34 672.25 386.01 665.99 C 384.67 659.74 385.97 645.61 384.00 639.00 C 382.03 632.39 379.21 620.23 386.00 618.00 Z"/>
</g>
<g fill="#21201F" fill-opacity="1.00" stroke="None">
<path d="
M 488.00 77.00 
C 476.05 72.67 468.05 63.55 456.03 58.98 C 444.00 54.40 434.81 48.06 422.22 43.78 C 409.63 39.50 395.61 36.32 381.69 34.31 C 367.78 32.29 351.60 31.33 337.00 30.00 C 322.40 28.67 304.01 32.12 290.00 33.00 C 275.99 33.88 261.82 38.14 249.07 41.07 C 236.33 44.01 225.09 50.59 214.07 56.07 C 203.05 61.55 193.66 67.94 184.25 75.25 C 174.83 82.55 166.98 90.77 158.25 98.25 C 149.51 105.73 140.98 113.98 132.10 122.10 C 123.21 130.22 116.82 138.17 107.75 146.75 C 98.69 155.34 92.39 164.44 84.75 173.75 C 77.11 183.07 70.00 192.10 63.92 201.92 C 57.84 211.74 51.07 223.29 45.77 233.77 C 40.47 244.25 34.83 262.38 39.25 273.75 C 43.66 285.13 53.56 294.19 62.00 300.00
C 55.32 318.37 50.99 343.88 63.00 360.00
C 62.67 346.55 68.39 357.87 65.00 365.00 C 61.61 372.13 61.98 379.80 59.93 386.93 C 57.87 394.05 59.25 402.71 62.08 408.92 C 64.90 415.13 69.35 419.71 72.75 425.25 C 76.15 430.78 81.70 434.37 86.00 438.00
C 83.88 424.18 78.69 409.28 83.00 396.00 C 87.31 382.73 90.80 372.07 99.08 362.08 C 107.37 352.09 112.87 343.30 121.75 334.75 C 130.63 326.20 138.53 318.02 147.10 310.10 C 155.67 302.18 163.47 293.14 172.25 285.25 C 181.03 277.36 190.54 270.09 199.25 262.25 C 207.96 254.40 217.34 245.68 225.92 237.92 C 234.50 230.15 243.75 222.07 252.75 214.75 C 261.76 207.44 271.41 200.46 280.92 192.92 C 290.43 185.38 300.02 179.46 309.75 171.75 C 319.49 164.05 328.64 158.25 338.25 150.25 C 347.86 142.25 357.46 137.11 367.92 129.92 C 378.38 122.73 390.23 119.09 401.78 112.78 C 413.33 106.46 427.24 104.26 440.78 101.78 C 454.32 99.30 469.27 104.22 482.00 107.00 C 494.72 109.79 506.36 114.99 516.75 122.25 C 527.15 129.50 535.36 137.01 544.97 144.03 C 554.59 151.04 561.96 160.52 571.00 168.00
C 563.21 139.74 550.02 116.35 524.08 99.92 C 498.14 83.48 461.69 82.14 431.00 79.00
C 446.72 71.03 470.86 76.97 488.00 77.00
M 193.00 199.00 
C 192.17 207.02 182.02 213.59 175.75 220.75 C 169.49 227.92 163.42 235.51 156.25 242.25 C 149.08 248.98 144.00 258.07 137.25 265.25 C 130.50 272.42 126.25 281.68 120.08 289.08 C 113.90 296.47 109.44 305.55 103.25 313.25 C 97.05 320.95 91.93 331.01 85.00 337.00
C 88.00 318.59 101.48 300.05 111.78 283.78 C 122.07 267.50 136.43 252.87 149.25 238.25 C 162.07 223.63 177.32 209.95 193.00 199.00 Z"/>
</g>
<g fill="#030303" fill-opacity="0.53" stroke="None">
<path d="
M 494.00 73.00 
C 490.52 69.45 486.78 66.52 482.00 64.00
C 484.16 65.83 490.05 70.18 494.00 73.00 Z"/>
</g>
<g fill="#010100" fill-opacity="0.76" stroke="None">
<path d="
M 83.00 163.00 
C 81.45 164.78 80.70 167.44 79.00 169.00
C 84.52 165.64 88.92 155.74 90.00 154.00
C 87.54 156.75 86.18 160.29 83.00 163.00 Z"/>
</g>
<g fill="#060400" fill-opacity="0.30" stroke="None">
<path d="
M 77.00 170.00 
C 77.23 169.74 78.62 169.23 79.00 169.00
C 80.70 167.44 81.45 164.78 83.00 163.00
C 80.39 165.23 78.77 167.04 77.00 170.00 Z"/>
</g>
<g fill="#0B0A09" fill-opacity="1.00" stroke="None">
<path d="
M 193.00 199.00 
C 177.32 209.95 162.07 223.63 149.25 238.25 C 136.43 252.87 122.07 267.50 111.78 283.78 C 101.48 300.05 88.00 318.59 85.00 337.00
C 91.93 331.01 97.05 320.95 103.25 313.25 C 109.44 305.55 113.90 296.47 120.08 289.08 C 126.25 281.68 130.50 272.42 137.25 265.25 C 144.00 258.07 149.08 248.98 156.25 242.25 C 163.42 235.51 169.49 227.92 175.75 220.75 C 182.02 213.59 192.17 207.02 193.00 199.00 Z"/>
</g>
<g fill="#000000" fill-opacity="0.73" stroke="None">
<path d="
M 614.00 251.00 
C 612.90 247.78 611.43 244.85 610.00 242.00
C 611.19 245.22 612.62 248.08 614.00 251.00 Z"/>
</g>
<g fill="#443E3F" fill-opacity="1.00" stroke="None">
<path d="
M 283.00 313.00 
C 280.05 306.20 280.70 296.35 275.00 293.00
C 273.25 299.89 268.65 305.86 268.00 313.00
C 273.00 313.00 278.00 313.00 283.00 313.00
M 277.00 295.00 
C 276.63 301.29 280.88 306.25 282.00 312.00
C 277.67 312.00 273.33 312.00 269.00 312.00
C 270.90 306.26 273.07 299.55 277.00 295.00 Z"/>
</g>
<g fill="#847B7C" fill-opacity="1.00" stroke="None">
<path d="
M 277.00 295.00 
C 273.07 299.55 270.90 306.26 269.00 312.00
C 273.33 312.00 277.67 312.00 282.00 312.00
C 280.88 306.25 276.63 301.29 277.00 295.00 Z"/>
</g>
<g fill="#787778" fill-opacity="1.00" stroke="None">
<path d="
M 457.00 309.00 
C 455.99 304.68 452.84 300.34 450.00 297.00
C 451.24 301.46 450.21 310.61 457.00 309.00 Z"/>
</g>
<g fill="#878585" fill-opacity="1.00" stroke="None">
<path d="
M 498.00 370.00 
C 495.17 362.74 487.42 356.15 483.77 349.23 C 480.12 342.31 472.45 336.29 469.77 329.23 C 467.09 322.17 452.18 313.81 450.00 325.00 C 447.82 336.19 452.33 346.27 447.98 357.98 C 443.62 369.69 457.55 366.98 467.33 366.67 C 477.11 366.36 488.49 368.54 498.00 370.00 Z"/>
</g>
<g fill="#000000" fill-opacity="0.37" stroke="None">
<path d="
M 48.00 342.00 
C 47.20 336.27 47.56 328.03 48.00 323.00
C 46.30 327.50 45.33 335.28 48.00 342.00 Z"/>
</g>
<g fill="#848181" fill-opacity="1.00" stroke="None">
<path d="
M 288.00 323.00 
C 274.91 324.09 257.49 326.64 251.30 339.30 C 245.12 351.97 233.21 356.29 229.00 369.00
C 255.52 363.09 283.77 363.77 312.00 364.00
C 302.97 350.97 295.49 337.12 288.00 323.00 Z"/>
</g>
<g fill="#000000" fill-opacity="0.34" stroke="None">
<path d="
M 634.00 357.00 
C 635.77 348.47 635.71 336.91 633.00 329.00
C 634.37 337.08 633.82 348.81 634.00 357.00 Z"/>
</g>
<g fill="#514F4F" fill-opacity="1.00" stroke="None">
<path d="
M 190.00 406.00 
C 197.43 398.43 204.69 390.27 215.03 387.03 C 225.36 383.78 242.82 384.06 254.00 382.00
C 252.77 384.17 252.78 386.68 252.00 389.00
C 255.08 387.86 253.37 383.78 256.00 382.00
C 244.73 380.95 226.72 383.56 216.00 386.00 C 205.29 388.44 196.64 397.59 190.00 406.00 Z"/>
</g>
<g fill="#3B393A" fill-opacity="1.00" stroke="None">
<path d="
M 490.00 444.00 
C 490.60 442.14 491.52 440.60 492.00 438.00
C 495.37 419.89 493.87 400.63 493.00 382.00
C 494.83 381.77 496.48 382.07 498.00 383.00
C 495.60 382.56 490.86 379.12 492.22 385.78 C 493.58 392.44 493.27 390.19 493.00 398.00 C 492.73 405.81 492.29 414.43 493.00 422.00 C 493.71 429.57 491.34 436.91 490.00 444.00 Z"/>
</g>
<g fill="#969695" fill-opacity="1.00" stroke="None">
<path d="
M 190.00 406.00 
C 184.40 413.09 183.75 429.02 183.00 438.00 C 182.25 446.98 180.62 465.49 168.03 461.97 C 155.43 458.46 155.45 451.46 146.75 444.25 C 138.05 437.03 137.96 429.91 130.77 421.23 C 123.58 412.55 124.60 405.09 117.75 395.25 C 110.90 385.40 100.09 399.93 98.00 408.00
C 95.40 418.04 96.24 426.98 98.00 437.00
C 99.99 448.32 105.86 457.50 112.08 466.92 C 118.30 476.34 123.12 483.49 131.77 491.23 C 140.42 498.97 151.18 502.34 162.26 503.26 C 173.34 504.17 187.97 493.55 199.00 496.00
C 204.14 496.39 205.17 497.79 208.00 502.00
C 208.84 503.24 210.19 504.36 210.00 506.00
C 220.24 504.90 226.22 518.78 234.97 523.03 C 243.72 527.28 252.44 533.48 261.92 537.08 C 271.40 540.68 282.98 544.40 292.00 548.00
C 292.54 548.22 293.55 548.69 294.00 549.00
C 303.26 555.34 315.54 560.17 326.68 561.32 C 337.82 562.47 351.87 569.94 361.00 568.00
C 427.64 562.85 509.56 535.44 524.00 461.00
C 516.90 452.52 523.23 440.14 522.67 429.67 C 522.11 419.20 524.61 405.50 521.92 395.08 C 519.23 384.66 505.57 384.40 498.00 383.00
C 497.36 383.10 496.32 383.66 495.00 383.00
C 493.56 401.60 497.87 421.43 492.00 438.00
C 491.52 440.60 490.60 442.14 490.00 444.00
C 487.12 459.19 479.47 476.72 462.22 479.22 C 444.97 481.72 433.90 465.60 430.00 451.00
C 428.62 447.69 428.85 445.00 428.00 441.00
C 427.26 437.37 423.93 431.62 427.00 427.00
C 413.55 419.92 402.10 408.88 390.00 399.00
C 389.57 408.88 398.13 414.66 396.99 424.99 C 395.85 435.33 382.82 427.77 377.03 423.97 C 371.24 420.18 362.47 416.28 356.75 411.25 C 351.02 406.23 344.85 401.27 339.25 395.75 C 333.64 390.23 329.14 381.07 320.00 383.00
C 322.47 389.17 321.64 395.40 322.00 402.00
C 324.26 415.90 322.94 432.43 321.00 446.00
C 320.41 461.55 310.06 473.94 296.00 479.00
C 289.71 481.26 282.14 482.21 276.00 479.00
C 271.04 476.41 266.30 472.03 264.00 467.00
C 262.10 464.17 260.17 461.52 259.00 458.00
C 251.90 436.71 248.26 412.50 252.00 389.00
C 252.78 386.68 252.77 384.17 254.00 382.00
C 242.82 384.06 225.36 383.78 215.03 387.03 C 204.69 390.27 197.43 398.43 190.00 406.00 Z"/>
</g>
<g fill="#7B7979" fill-opacity="1.00" stroke="None">
<path d="
M 492.00 438.00 
C 497.87 421.43 493.56 401.60 495.00 383.00
C 496.32 383.66 497.36 383.10 498.00 383.00
C 496.48 382.07 494.83 381.77 493.00 382.00
C 493.87 400.63 495.37 419.89 492.00 438.00 Z"/>
</g>
<g fill="#000000" fill-opacity="0.54" stroke="None">
<path d="
M 53.00 405.00 
C 52.23 398.12 52.45 389.90 53.00 383.00
C 49.49 390.95 49.38 396.81 53.00 405.00 Z"/>
</g>
<g fill="#4A4A4A" fill-opacity="1.00" stroke="None">
<path d="
M 321.00 446.00 
C 322.94 432.43 324.26 415.90 322.00 402.00
C 322.80 416.80 321.55 431.47 321.00 446.00 Z"/>
</g>
<g fill="#555251" fill-opacity="1.00" stroke="None">
<path d="
M 98.00 437.00 
C 96.24 426.98 95.40 418.04 98.00 408.00
C 94.30 418.02 94.96 426.99 98.00 437.00 Z"/>
</g>
<g fill="#898787" fill-opacity="1.00" stroke="None">
<path d="
M 520.00 508.00 
C 529.42 506.81 537.92 500.71 545.75 495.75 C 553.59 490.80 559.28 486.22 565.70 478.70 C 572.12 471.18 575.88 465.59 579.75 455.75 C 583.61 445.90 585.51 435.86 581.99 424.01 C 578.48 412.16 566.47 418.68 563.25 428.25 C 560.03 437.82 546.91 439.30 550.00 450.00
C 538.28 447.24 539.75 459.56 536.31 466.31 C 532.86 473.05 530.84 480.16 526.78 486.78 C 522.71 493.39 521.09 500.95 520.00 508.00 Z"/>
</g>
<g fill="#545454" fill-opacity="1.00" stroke="None">
<path d="
M 428.00 441.00 
C 427.83 440.21 427.18 439.83 427.00 439.00
C 426.23 435.39 428.54 429.39 427.00 427.00
C 423.93 431.62 427.26 437.37 428.00 441.00 Z"/>
</g>
<g fill="#000000" fill-opacity="0.50" stroke="None">
<path d="
M 67.00 433.00 
C 68.14 433.03 68.72 434.53 70.00 434.00
C 69.66 431.06 66.61 429.96 65.00 428.00
C 65.38 428.95 65.37 430.93 67.00 433.00 Z"/>
</g>
<g fill="#2E2E2E" fill-opacity="1.00" stroke="None">
<path d="
M 428.00 441.00 
C 428.85 445.00 428.62 447.69 430.00 451.00
C 429.03 447.36 427.61 441.98 427.00 439.00
C 427.18 439.83 427.83 440.21 428.00 441.00 Z"/>
</g>
<g fill="#4B4B49" fill-opacity="1.00" stroke="None">
<path d="
M 264.00 467.00 
C 262.61 463.95 260.30 460.75 259.00 458.00
C 260.17 461.52 262.10 464.17 264.00 467.00 Z"/>
</g>
<g fill="#494947" fill-opacity="1.00" stroke="None">
<path d="
M 296.00 479.00 
C 290.03 480.28 281.84 481.00 276.00 479.00
C 282.14 482.21 289.71 481.26 296.00 479.00 Z"/>
</g>
<g fill="#6C6968" fill-opacity="0.90" stroke="None">
<path d="
M 200.00 497.00 
C 200.97 497.31 202.74 496.39 203.00 498.00
C 204.50 498.88 206.94 500.74 208.00 502.00
C 205.17 497.79 204.14 496.39 199.00 496.00
C 199.23 496.05 199.65 496.89 200.00 497.00 Z"/>
</g>
<g fill="#282423" fill-opacity="0.55" stroke="None">
<path d="
M 198.00 504.00 
C 199.81 502.54 201.17 500.82 203.00 500.00
C 202.76 499.68 203.00 499.00 203.00 499.00
C 203.00 498.50 203.00 498.00 203.00 498.00
C 202.74 496.39 200.97 497.31 200.00 497.00
C 200.18 498.29 198.19 503.77 198.00 504.00 Z"/>
</g>
<g fill="#747270" fill-opacity="0.59" stroke="None">
<path d="
M 203.00 499.00 
C 205.87 501.01 206.84 503.53 209.00 506.00
C 209.00 506.00 209.51 506.05 210.00 506.00
C 210.19 504.36 208.84 503.24 208.00 502.00
C 206.94 500.74 204.50 498.88 203.00 498.00
C 203.00 498.00 203.00 498.50 203.00 499.00 Z"/>
</g>
<g fill="#6A6866" fill-opacity="0.13" stroke="None">
<path d="
M 203.00 500.00 
C 204.81 502.37 206.04 504.24 207.00 507.00
C 206.76 507.48 209.18 505.88 209.00 506.00
C 206.84 503.53 205.87 501.01 203.00 499.00
C 203.00 499.00 202.76 499.68 203.00 500.00 Z"/>
</g>
<g fill="#030000" fill-opacity="0.52" stroke="None">
<path d="
M 523.00 518.00 
C 526.21 516.92 528.15 516.86 531.00 515.00
C 527.96 516.07 524.01 517.36 523.00 518.00 Z"/>
</g>
<g fill="#030100" fill-opacity="0.51" stroke="None">
<path d="
M 469.00 550.00 
C 471.28 548.73 473.63 547.47 476.00 546.00
C 476.03 544.86 477.53 544.28 477.00 543.00
C 473.81 544.28 470.00 549.09 469.00 550.00 Z"/>
</g>
<g fill="#3C3C3C" fill-opacity="1.00" stroke="None">
<path d="
M 300.00 569.00 
C 300.48 561.15 300.40 554.98 294.00 549.00
C 293.55 548.69 292.54 548.22 292.00 548.00
C 299.04 552.83 299.62 561.34 300.00 569.00 Z"/>
</g>
<g fill="#7A7A79" fill-opacity="1.00" stroke="None">
<path d="
M 300.00 569.00 
C 300.11 571.27 299.64 573.76 300.00 576.00
C 302.37 581.93 312.26 579.84 316.69 582.31 C 321.13 584.78 328.56 588.45 334.67 589.33 C 340.79 590.20 348.55 593.07 356.00 592.00
C 356.71 589.38 356.13 585.36 359.00 584.00
C 360.08 578.93 356.70 571.51 361.00 568.00
C 351.87 569.94 337.82 562.47 326.68 561.32 C 315.54 560.17 303.26 555.34 294.00 549.00
C 300.40 554.98 300.48 561.15 300.00 569.00 Z"/>
</g>
<g fill="#201F1D" fill-opacity="1.00" stroke="None">
<path d="
M 333.00 721.00 
L 534.00 721.00
C 534.00 710.82 525.89 706.65 519.75 700.25 C 513.62 693.85 508.42 689.60 502.75 683.25 C 497.08 676.90 491.39 671.69 485.75 665.25 C 480.12 658.80 476.53 652.17 471.25 645.75 C 465.97 639.34 461.17 633.69 455.75 627.25 C 450.34 620.81 443.98 616.85 438.25 609.75 C 432.52 602.65 425.71 614.17 417.23 615.23 C 408.75 616.29 401.65 624.70 393.00 625.00
C 393.13 636.63 399.22 647.74 400.00 659.00 C 400.78 670.26 402.95 682.82 399.00 693.00
C 407.66 699.63 398.25 713.83 389.00 706.00
C 388.49 701.35 387.53 696.89 388.00 692.00
C 377.96 690.43 381.80 679.32 381.00 672.00 C 380.20 664.68 380.19 653.95 379.00 647.00 C 377.81 640.06 379.02 628.70 370.00 632.00
C 368.58 625.06 377.09 623.64 377.70 617.70 C 378.31 611.75 390.48 610.91 389.00 618.00
C 400.96 614.30 408.49 610.41 420.30 605.30 C 432.12 600.19 429.04 584.07 418.70 578.30 C 408.36 572.53 395.73 572.08 384.00 577.00
C 389.76 597.55 363.57 611.15 354.00 626.00
C 347.08 625.24 342.48 619.24 336.25 614.75 C 330.01 610.26 326.17 604.36 319.23 600.77 C 312.28 597.18 307.83 593.20 300.75 589.25 C 293.66 585.30 286.39 583.59 278.22 580.78 C 270.05 577.97 263.01 577.46 254.08 573.92 C 245.15 570.38 262.90 562.81 260.00 558.00
C 264.80 558.77 268.95 553.31 272.00 559.00
C 273.31 556.90 270.87 554.20 274.00 553.00
C 259.60 550.39 248.61 552.16 234.08 556.08 C 219.55 560.01 225.83 578.76 218.25 587.25 C 210.66 595.73 196.74 600.69 200.00 616.00
C 208.51 615.25 216.62 616.48 225.00 615.00 C 233.38 613.52 242.42 614.10 251.00 614.00 C 259.58 613.90 267.83 615.06 276.00 616.00 C 284.17 616.94 292.12 616.95 299.78 619.22 C 307.44 621.49 313.06 624.11 317.75 617.75 C 322.45 611.40 333.33 623.02 330.00 629.00
C 334.26 629.00 340.64 630.04 341.00 635.00
C 338.19 635.28 335.51 634.80 333.00 634.00
C 328.70 642.38 333.35 654.21 333.01 663.99 C 332.66 673.77 337.15 685.38 336.00 695.00 C 334.85 704.62 334.94 712.42 333.00 721.00 Z"/>
</g>
<g fill="#060303" fill-opacity="0.32" stroke="None">
<path d="
M 463.00 552.00 
C 459.48 553.71 455.42 556.26 452.00 558.00
C 456.96 557.37 460.85 554.03 465.00 552.00
C 464.51 552.05 464.25 551.62 463.00 552.00 Z"/>
</g>
<g fill="#060303" fill-opacity="0.71" stroke="None">
<path d="
M 450.00 558.00 
C 450.49 557.94 451.51 558.06 452.00 558.00
C 455.42 556.26 459.48 553.71 463.00 552.00
C 458.34 553.41 454.18 556.07 450.00 558.00 Z"/>
</g>
<g fill="#040202" fill-opacity="0.67" stroke="None">
<path d="
M 423.00 572.00 
C 420.93 570.40 423.96 568.10 422.00 567.00
C 420.11 568.65 419.29 572.25 423.00 572.00 Z"/>
</g>
<g fill="#414040" fill-opacity="1.00" stroke="None">
<path d="
M 359.00 584.00 
C 358.83 584.78 358.19 585.19 358.00 586.00
C 358.32 584.27 361.00 579.78 360.00 577.00 C 359.00 574.22 359.37 569.73 361.00 568.00
C 356.70 571.51 360.08 578.93 359.00 584.00 Z"/>
</g>
<g fill="#949393" fill-opacity="1.00" stroke="None">
<path d="
M 358.00 586.00 
C 358.19 585.19 358.83 584.78 359.00 584.00
C 356.13 585.36 356.71 589.38 356.00 592.00
C 348.55 593.07 340.79 590.20 334.67 589.33 C 328.56 588.45 321.13 584.78 316.69 582.31 C 312.26 579.84 302.37 581.93 300.00 576.00
C 300.00 577.33 300.00 578.67 300.00 580.00
C 309.42 582.49 317.21 589.63 325.75 594.25 C 334.30 598.86 339.68 606.31 346.75 613.25 C 353.83 620.19 363.11 604.02 367.00 599.00
C 361.30 597.56 356.48 592.37 358.00 586.00 Z"/>
</g>
<g fill="#000000" fill-opacity="0.51" stroke="None">
<path d="
M 195.00 624.00 
C 194.53 618.47 192.70 608.53 193.00 602.00
C 190.05 610.49 192.15 616.01 195.00 624.00 Z"/>
</g>
<g fill="#1E1E1D" fill-opacity="1.00" stroke="None">
<path d="
M 386.00 618.00 
C 379.21 620.23 382.03 632.39 384.00 639.00 C 385.97 645.61 384.67 659.74 386.01 665.99 C 387.34 672.25 383.83 687.44 391.99 687.99 C 400.15 688.54 394.69 673.13 394.00 667.00 C 393.31 660.88 391.58 648.89 389.93 642.07 C 388.27 635.25 386.40 625.42 386.00 618.00 Z"/>
</g>
<g fill="#20201E" fill-opacity="1.00" stroke="None">
<path d="
M 142.00 721.00 
L 324.00 721.00
C 320.24 716.71 322.70 710.31 322.00 705.00
C 314.36 700.93 313.86 690.88 314.00 681.00 C 314.14 671.12 312.77 659.87 314.00 649.00 C 315.23 638.13 313.06 631.10 302.22 629.78 C 291.39 628.46 284.40 626.79 274.22 625.78 C 264.05 624.77 254.48 622.71 244.22 624.22 C 233.96 625.73 225.02 625.27 215.00 624.00
C 215.39 628.41 209.14 629.69 206.00 628.00
C 208.49 630.99 208.22 634.17 203.00 633.00
C 201.98 635.09 201.68 637.23 200.00 639.00
C 221.75 639.10 238.45 663.18 244.00 682.00
C 229.00 667.92 218.44 647.49 199.00 641.00
C 186.89 652.54 179.45 667.59 170.26 681.26 C 161.06 694.93 149.99 706.57 142.00 721.00 Z"/>
</g>
<g fill="#000000" fill-opacity="0.51" stroke="None">
<path d="
M 152.00 696.00 
C 153.10 694.61 154.06 692.14 155.00 691.00
C 154.58 691.27 153.56 691.28 151.77 692.77 C 149.99 694.26 151.71 696.84 152.00 696.00 Z"/>
</g>
<g fill="#050103" fill-opacity="0.46" stroke="None">
<path d="
M 538.00 707.00 
C 538.95 708.43 540.33 710.62 541.00 712.00
C 540.40 708.43 540.05 708.71 538.00 707.00 Z"/>
</g>
</svg>